<?xml version="1.0" encoding="utf-8"?>
<!-- Generator: Adobe Illustrator 22.0.1, SVG Export Plug-In . SVG Version: 6.00 Build 0)  -->
<svg version="1.1" id="Layer_1" xmlns="http://www.w3.org/2000/svg" xmlns:xlink="http://www.w3.org/1999/xlink" x="0px" y="0px"
	 viewBox="0 0 50 50" style="enable-background:new 0 0 50 50;" xml:space="preserve">
<style type="text/css">
	.st0{fill:#8C8C8C;}
</style>
<g>
	<path class="st0" d="M11.5,22.2c0-0.2,0-0.4,0-0.5c0-2,0-4,0-6c0-4.5,1.9-8.1,5.5-10.8C22,1.1,28.6,1.3,33.5,5.3
		c3.2,2.6,4.8,5.9,5,10c0.1,2.1,0,4.2,0,6.2c0,0.2,0,0.4,0,0.6c0.7,0,1.3,0,1.9,0c2.7,0,4.5,1.8,4.5,4.5c0,5.6,0,11.2,0,16.7
		c0,2.6-1.8,4.5-4.5,4.5c-10.4,0-20.7,0-31.1,0C6.9,47.8,5,46,5,43.4c0-5.7,0-11.3,0-17c0-2.3,1.8-4.2,4.1-4.2
		C9.9,22.1,10.6,22.2,11.5,22.2z M31.4,22.1c0-0.1,0-0.1,0-0.2c0-2.1,0.1-4.2,0-6.2c-0.1-2.6-1.2-4.5-3.6-5.7
		c-4.2-2.1-9.2,0.9-9.3,5.6c0,2.1,0,4.1,0,6.2c0,0.1,0,0.2,0,0.3C22.9,22.1,27.1,22.1,31.4,22.1z"/>
</g>
</svg>
